<svg width="14" height="16" viewBox="0 0 14 16" fill="none" xmlns="http://www.w3.org/2000/svg">
<g clip-path="url(#clip0_1240_1187)">
<path d="M13.1429 8.57132C13.1429 8.87489 13.0268 9.16954 12.8125 9.38382L7 15.1963C6.78571 15.4017 6.49107 15.5267 6.1875 15.5267C5.88393 15.5267 5.59821 15.4017 5.38393 15.1963L4.71429 14.5267C4.5 14.3124 4.375 14.0178 4.375 13.7142C4.375 13.4106 4.5 13.116 4.71429 12.9017L7.33036 10.2856H1.04464C0.401786 10.2856 0 9.74989 0 9.14275V7.99989C0 7.39275 0.401786 6.85704 1.04464 6.85704H7.33036L4.71429 4.23204C4.5 4.02668 4.375 3.73204 4.375 3.42847C4.375 3.1249 4.5 2.83025 4.71429 2.6249L5.38393 1.95525C5.59821 1.74097 5.88393 1.61597 6.1875 1.61597C6.49107 1.61597 6.78571 1.74097 7 1.95525L12.8125 7.76775C13.0268 7.97311 13.1429 8.26775 13.1429 8.57132Z" fill="#8EC07C"/>
</g>
<defs>
<clipPath id="clip0_1240_1187">
<rect width="13.1429" height="16" fill="white"/>
</clipPath>
</defs>
</svg>
