<svg width="16" height="16" viewBox="0 0 16 16" fill="none" xmlns="http://www.w3.org/2000/svg">
<path d="M7.52869 3.80467L11.0574 7.33334H3.33335C2.96535 7.33334 2.66669 7.632 2.66669 8C2.66669 8.368 2.96535 8.66667 3.33335 8.66667H11.0574L7.52869 12.1953C7.26802 12.456 7.26802 12.878 7.52869 13.138C7.78935 13.398 8.21135 13.3987 8.47135 13.138L13.138 8.47134C13.1994 8.41 13.2487 8.33667 13.2827 8.25534C13.35 8.092 13.35 7.908 13.2827 7.74467C13.25 7.666 13.202 7.59267 13.138 7.52867L8.47135 2.862C8.21069 2.60134 7.78869 2.60134 7.52869 2.862C7.26869 3.12267 7.26802 3.54467 7.52869 3.80467Z" fill="#FD6D5C"/>
</svg>
