<svg width="16" height="16" viewBox="0 0 16 16" fill="none" xmlns="http://www.w3.org/2000/svg">
<path d="M7.33333 4.66669C10.2787 4.66669 12.6667 5.26335 12.6667 6.00002C12.6667 6.73669 10.2787 7.33335 7.33333 7.33335C4.388 7.33335 2 6.73669 2 6.00002C2 5.76202 2.25 5.53802 2.68867 5.34402" stroke="#979FA9" stroke-width="2" stroke-linecap="round" stroke-linejoin="round"/>
<path d="M2 6V12.2287C2 12.936 2.29333 13.6153 2.93933 13.904C3.74933 14.266 5.14067 14.6667 7.33333 14.6667C9.52667 14.6667 10.918 14.266 11.7273 13.904C12.3727 13.6153 12.6667 12.936 12.6667 12.2287V6" stroke="#979FA9" stroke-width="2" stroke-linecap="round" stroke-linejoin="round"/>
<path d="M12.6667 6.66669C13.1971 6.66669 13.7058 6.8774 14.0809 7.25247C14.456 7.62755 14.6667 8.13625 14.6667 8.66669C14.6667 9.19712 14.456 9.70583 14.0809 10.0809C13.7058 10.456 13.1971 10.6667 12.6667 10.6667" stroke="#979FA9" stroke-width="2" stroke-linecap="round" stroke-linejoin="round"/>
<path d="M4.66669 2V4.66667" stroke="#979FA9" stroke-width="2" stroke-linecap="round" stroke-linejoin="round"/>
<path d="M7.33331 1.33331V2.66665" stroke="#979FA9" stroke-width="2" stroke-linecap="round" stroke-linejoin="round"/>
<path d="M10 2.66669V4.66669" stroke="#979FA9" stroke-width="2" stroke-linecap="round" stroke-linejoin="round"/>
</svg>
