<svg width="16" height="16" viewBox="0 0 16 16" fill="none" xmlns="http://www.w3.org/2000/svg">
<path d="M8 14H14C14.368 14 14.667 13.701 14.667 13.333C14.667 12.965 14.368 12.666 14 12.666H8C7.632 12.666 7.333 12.965 7.333 13.333C7.333 13.701 7.632 14 8 14ZM10.529 1.86199L2.196 10.195C2.115 10.276 2.051 10.382 2.021 10.505L1.354 13.172C1.328 13.272 1.326 13.384 1.354 13.495C1.443 13.852 1.805 14.07 2.163 13.98L4.83 13.313C4.941 13.286 5.05 13.227 5.14 13.138L13.473 4.80499C13.879 4.39899 14.082 3.86499 14.082 3.33399C14.082 2.80299 13.879 2.26899 13.473 1.86299C13.067 1.45699 12.532 1.25299 12.001 1.25299C11.47 1.25299 10.936 1.45599 10.53 1.86199H10.529ZM11.471 2.80499C11.617 2.65899 11.807 2.58599 12 2.58599C12.193 2.58599 12.383 2.65899 12.529 2.80499C12.675 2.95099 12.748 3.14099 12.748 3.33399C12.748 3.52699 12.675 3.71699 12.529 3.86299L4.326 12.066L2.916 12.419L3.269 11.009L11.471 2.80499Z" fill="#979FA9"/>
</svg>
