<svg width="40" height="40" viewBox="0 0 40 40" fill="none" xmlns="http://www.w3.org/2000/svg">
<rect width="40" height="40" rx="8" fill="white"/>
<path d="M22.5766 3.12163C27.4439 4.22479 31.3885 9.87715 33.0404 16.6533C34.1395 21.162 33.8579 26.1174 31.4383 30.0774C23.5689 42.9561 3.02351 36.2602 7.67831 23.9304C8.63421 21.3984 11.0419 19.8641 13.3439 18.3972C13.5155 18.2879 13.6866 18.1789 13.8564 18.0698C19.1278 14.6861 18.5602 10.8619 18.1106 7.83237C17.9964 7.06332 17.8899 6.34547 17.8884 5.69903C17.8834 3.56198 20.4924 2.64926 22.5766 3.12163Z" fill="#2D353D"/>
<path d="M10.3776 14.0645C13.3776 14.0645 14.8776 12.2737 14.8776 10.0645C14.8776 7.8554 13.5867 6.06454 11.3776 6.06454C8.37756 6.06454 7.37756 7.8554 7.37756 10.0645C7.37756 12.2737 8.16842 14.0645 10.3776 14.0645Z" fill="#2D353D"/>
</svg>
