<svg width="32" height="32" viewBox="0 0 32 32" fill="none" xmlns="http://www.w3.org/2000/svg">
<path d="M18.0612 2.49733C21.9551 3.37986 25.1108 7.90174 26.4323 13.3227C27.3116 16.9296 27.0863 20.894 25.1506 24.0619C18.8551 34.3649 2.41879 29.0082 6.14262 19.1443C6.90734 17.1187 8.83349 15.8913 10.6751 14.7178C10.8124 14.6303 10.9493 14.5431 11.0851 14.4559C15.3022 11.7489 14.8482 8.68957 14.4884 6.26592C14.3971 5.65068 14.3119 5.0764 14.3107 4.55924C14.3067 2.84961 16.3939 2.11943 18.0612 2.49733Z" fill="#2D353D"/>
<path d="M8.30202 11.2517C10.702 11.2517 11.902 9.81897 11.902 8.05166C11.902 6.28435 10.8693 4.85166 9.10203 4.85166C6.70202 4.85166 5.90202 6.28435 5.90202 8.05166C5.90202 9.81897 6.53471 11.2517 8.30202 11.2517Z" fill="#2D353D"/>
</svg>
