<svg width="20" height="20" viewBox="0 0 20 20" fill="none" xmlns="http://www.w3.org/2000/svg">
<g clip-path="url(#clip0_1310_153)">
<path fill-rule="evenodd" clip-rule="evenodd" d="M12.5 3.75C12.5 3.5625 12.6172 3.39453 12.793 3.32812L15 2.5L15.8281 0.292969C15.8945 0.117188 16.0625 0 16.25 0C16.4375 0 16.6055 0.117188 16.6719 0.292969L17.5 2.5L19.707 3.32812C19.8828 3.39453 20 3.5625 20 3.75C20 3.9375 19.8828 4.10547 19.707 4.17188L17.5 5L16.6719 7.20703C16.6055 7.38281 16.4375 7.5 16.25 7.5C16.0625 7.5 15.8945 7.38281 15.8281 7.20703L15 5L12.793 4.17188C12.6172 4.10547 12.5 3.9375 12.5 3.75ZM12.793 15.8281L15 15L15.8281 12.793C15.8945 12.6172 16.0625 12.5 16.25 12.5C16.4375 12.5 16.6055 12.6172 16.6719 12.793L17.5 15L19.707 15.8281C19.8828 15.8945 20 16.0625 20 16.25C20 16.4375 19.8828 16.6055 19.707 16.6719L17.5 17.5L16.6719 19.707C16.6055 19.8828 16.4375 20 16.25 20C16.0625 20 15.8945 19.8828 15.8281 19.707L15 17.5L12.793 16.6719C12.6172 16.6055 12.5 16.4375 12.5 16.25C12.5 16.0625 12.6172 15.8945 12.793 15.8281Z" fill="#FABD2F"/>
<path d="M8.01172 2.86328C7.91016 2.64063 7.6875 2.5 7.44531 2.5C7.20313 2.5 6.98047 2.64063 6.87891 2.86328L4.81641 7.31641L0.363281 9.375C0.140625 9.47656 0 9.69922 0 9.94531C0 10.1914 0.140625 10.4102 0.363281 10.5117L4.82031 12.5703L6.875 17.0234C6.97656 17.2461 7.19922 17.3867 7.44141 17.3867C7.68359 17.3867 7.90625 17.2461 8.00781 17.0234L10.0664 12.5664L14.5234 10.5078C14.7461 10.4063 14.8867 10.1836 14.8867 9.94141C14.8867 9.69922 14.7461 9.47656 14.5234 9.375L10.0703 7.32031L8.01172 2.86328Z" fill="#8EC07C"/>
</g>
<defs>
<clipPath id="clip0_1310_153">
<rect width="20" height="20" fill="white"/>
</clipPath>
</defs>
</svg>
