<svg width="16" height="16" viewBox="0 0 16 16" fill="none" xmlns="http://www.w3.org/2000/svg">
<path d="M3.13802 11.805L7.13802 7.80499C7.39902 7.54399 7.39902 7.12199 7.13802 6.86199L3.13802 2.86199C2.87702 2.60099 2.45502 2.60099 2.19502 2.86199C1.93502 3.12299 1.93402 3.54499 2.19502 3.80499L5.72402 7.33399L2.19502 10.863C1.93402 11.124 1.93402 11.546 2.19502 11.806C2.45602 12.066 2.87802 12.067 3.13802 11.806V11.805ZM8.00002 13.333H13.333C13.701 13.333 14 13.034 14 12.666C14 12.298 13.701 11.999 13.333 11.999H8.00002C7.63202 11.999 7.33302 12.298 7.33302 12.666C7.33302 13.034 7.63202 13.333 8.00002 13.333Z" fill="#979FA9"/>
</svg>
