<svg width="20" height="20" viewBox="0 0 20 20" fill="none" xmlns="http://www.w3.org/2000/svg">
<path d="M11.5 7C11.224 7 11 6.776 11 6.5C11 5.122 9.878 4 8.5 4C8.224 4 8 3.776 8 3.5C8 3.224 8.224 3 8.5 3C9.878 3 11 1.878 11 0.5C11 0.224 11.224 0 11.5 0C11.776 0 12 0.224 12 0.5C12 1.878 13.122 3 14.5 3C14.776 3 15 3.224 15 3.5C15 3.776 14.776 4 14.5 4C13.122 4 12 5.122 12 6.5C12 6.776 11.776 7 11.5 7ZM10.301 3.5C10.791 3.796 11.204 4.208 11.5 4.699C11.796 4.209 12.208 3.796 12.699 3.5C12.209 3.204 11.796 2.792 11.5 2.301C11.204 2.791 10.792 3.204 10.301 3.5Z" fill="#8EC07C"/>
<path d="M1.5 10C1.224 10 1 9.776 1 9.5C1 9.224 0.776 9 0.5 9C0.224 9 0 8.776 0 8.5C0 8.224 0.224 8 0.5 8C0.776 8 1 7.776 1 7.5C1 7.224 1.224 7 1.5 7C1.776 7 2 7.224 2 7.5C2 7.776 2.224 8 2.5 8C2.776 8 3 8.224 3 8.5C3 8.776 2.776 9 2.5 9C2.224 9 2 9.224 2 9.5C2 9.776 1.776 10 1.5 10Z" fill="#8EC07C"/>
<path d="M18.147 15.939L7.56098 5.35304C7.27798 5.07004 6.90198 4.91504 6.49998 4.91504C6.09798 4.91504 5.72198 5.07104 5.43898 5.35304L4.85298 5.93904C4.56998 6.22204 4.41498 6.59804 4.41498 7.00004C4.41498 7.40204 4.57098 7.77804 4.85298 8.06104L15.439 18.647C15.722 18.93 16.098 19.085 16.5 19.085C16.902 19.085 17.278 18.929 17.561 18.647L18.147 18.061C18.43 17.778 18.585 17.402 18.585 17C18.585 16.598 18.429 16.222 18.147 15.939ZM5.56098 6.64604L6.14698 6.06004C6.24098 5.96604 6.36598 5.91504 6.50098 5.91504C6.63598 5.91504 6.76098 5.96704 6.85498 6.06004L8.29398 7.49904L7.00098 8.79204L5.56198 7.35304C5.36698 7.15804 5.36598 6.84104 5.56098 6.64604ZM17.439 17.354L16.853 17.94C16.759 18.034 16.634 18.085 16.5 18.085C16.366 18.085 16.24 18.033 16.147 17.94L7.70798 9.50104L9.00098 8.20804L17.44 16.647C17.635 16.842 17.635 17.159 17.44 17.354H17.439Z" fill="#8EC07C"/>
<path d="M3.5 5C3.224 5 3 4.776 3 4.5C3 3.673 2.327 3 1.5 3C1.224 3 1 2.776 1 2.5C1 2.224 1.224 2 1.5 2C2.327 2 3 1.327 3 0.5C3 0.224 3.224 0 3.5 0C3.776 0 4 0.224 4 0.5C4 1.327 4.673 2 5.5 2C5.776 2 6 2.224 6 2.5C6 2.776 5.776 3 5.5 3C4.673 3 4 3.673 4 4.5C4 4.776 3.776 5 3.5 5ZM2.998 2.5C3.188 2.643 3.357 2.812 3.5 3.002C3.643 2.812 3.812 2.643 4.002 2.5C3.812 2.357 3.643 2.188 3.5 1.998C3.357 2.188 3.188 2.357 2.998 2.5Z" fill="#8EC07C"/>
<path d="M3.5 15C3.224 15 3 14.776 3 14.5C3 13.673 2.327 13 1.5 13C1.224 13 1 12.776 1 12.5C1 12.224 1.224 12 1.5 12C2.327 12 3 11.327 3 10.5C3 10.224 3.224 10 3.5 10C3.776 10 4 10.224 4 10.5C4 11.327 4.673 12 5.5 12C5.776 12 6 12.224 6 12.5C6 12.776 5.776 13 5.5 13C4.673 13 4 13.673 4 14.5C4 14.776 3.776 15 3.5 15ZM2.998 12.5C3.188 12.643 3.357 12.812 3.5 13.002C3.643 12.812 3.812 12.643 4.002 12.5C3.812 12.357 3.643 12.188 3.5 11.998C3.357 12.188 3.188 12.357 2.998 12.5Z" fill="#8EC07C"/>
</svg>
