<svg width="16" height="16" viewBox="0 0 16 16" fill="none" xmlns="http://www.w3.org/2000/svg">
<path d="M1 3C1 1.89531 1.89531 1 3 1H13C14.1031 1 15 1.89531 15 3V13C15 14.1031 14.1031 15 13 15H3C1.89531 15 1 14.1031 1 13V3ZM5.5 4H10.5V2.5H5.5V4ZM4 4V2.5H3C2.72375 2.5 2.5 2.72375 2.5 3V4H4ZM2.5 5.5V7.25H7.25V5.5H2.5ZM4 10.5V8.75H2.5V10.5H4ZM2.5 12V13C2.5 13.275 2.72375 13.5 3 13.5H7.25V12H2.5ZM5.5 10.5H10.5V8.75H5.5V10.5ZM13.5 10.5V8.75H12V10.5H13.5ZM13.5 12H8.75V13.5H13C13.275 13.5 13.5 13.275 13.5 13V12ZM8.75 5.5V7.25H13.5V5.5H8.75ZM13.5 4V3C13.5 2.72375 13.275 2.5 13 2.5H12V4H13.5Z" fill="#8EC07C"/>
</svg>
