<svg width="16" height="16" viewBox="0 0 16 16" fill="none" xmlns="http://www.w3.org/2000/svg">
<path d="M13 1H3C1.89531 1 1 1.89562 1 3V13C1 14.1044 1.89531 15 3 15H13C14.1047 15 15 14.1044 15 13V3C15 1.89562 14.1031 1 13 1ZM13.5 13C13.5 13.2756 13.2757 13.5 13 13.5H3C2.72431 13.5 2.5 13.2756 2.5 13V3C2.5 2.72438 2.72431 2.5 3 2.5H13C13.2757 2.5 13.5 2.72438 13.5 3V13ZM9.25 10.5H8.75V7.75C8.75 7.3375 8.41563 7 8 7H7C6.5875 7 6.25 7.3375 6.25 7.75C6.25 8.1625 6.5875 8.5 7 8.5H7.25V10.5H6.75C6.3375 10.5 6 10.8375 6 11.25C6 11.6625 6.3375 12 6.75 12H9.25C9.66406 12 10 11.6641 10 11.25C10 10.8359 9.66563 10.5 9.25 10.5ZM8 6C8.55219 6 9 5.55219 9 5C9 4.44781 8.55219 4 8 4C7.44781 4 7 4.44687 7 5C7 5.55313 7.44687 6 8 6Z" fill="#A79C8F"/>
</svg>
