<svg width="16" height="16" viewBox="0 0 16 16" fill="none" xmlns="http://www.w3.org/2000/svg">
<g clip-path="url(#clip0_1884_81)">
<path d="M8 4.5558e-05C7.9375 4.5558e-05 7.87813 -0.000635692 7.81563 0.00327056C4.53125 0.100927 2 2.96483 2 6.25015V14.5001C2 14.8009 2.2455 14.9998 2.50344 14.9998C2.62453 14.9998 2.74778 14.9534 2.85312 14.8518L3.63281 14.2737C3.72266 14.2073 3.82816 14.1751 3.92972 14.1751C4.07034 14.1751 4.20703 14.2307 4.27659 14.344L5.62034 15.8537C5.74687 15.9532 5.87188 16 6 16C6.12891 16 6.25716 15.952 6.35469 15.8543L7.62406 14.4228C7.72563 14.3095 7.86234 14.2537 7.99906 14.2537C8.13578 14.2537 8.2725 14.3095 8.34594 14.4228L9.61562 15.8543C9.74375 15.9532 9.87188 16 9.97188 16C10.0719 16 10.2264 15.952 10.3241 15.8543L11.6678 14.3446C11.8397 14.1493 12.1328 14.1181 12.3397 14.2743L13.1194 14.8525C13.2248 14.954 13.3481 15.0005 13.4691 15.0005C13.7269 15.0005 13.9725 14.8016 13.9725 14.5008V6.00005C14 2.68755 11.3125 4.5558e-05 8 4.5558e-05ZM12.5 12.7219C12.3594 12.6907 12.2148 12.675 12.0703 12.675C11.5 12.675 10.9531 12.9172 10.5744 13.3469L10 13.9938L9.49625 13.4272C9.11875 12.9969 8.56875 12.7532 8 12.7532C7.43125 12.7532 6.88281 12.9954 6.50375 13.425L6 13.9938L5.42563 13.3491C5.04688 12.9188 4.5 12.675 3.92969 12.675C3.78516 12.675 3.64062 12.6907 3.5 12.7219V6.25005C3.5 3.70317 5.45688 1.57505 7.85938 1.50317L8 1.50005C10.4806 1.50005 12.5 3.51942 12.5 6.00005V12.7219ZM6 4.97192C5.44937 4.97192 5.02813 5.4213 5.02813 5.97223C5.02813 6.52317 5.4775 6.97255 6 6.97255C6.5225 6.97255 7 6.52317 7 5.97223C7 5.4213 6.55 4.97192 6 4.97192ZM10 4.97192C9.44937 4.97192 9 5.4213 9 5.97223C9 6.52317 9.44937 6.97255 10 6.97255C10.5506 6.97255 11 6.52317 11 5.97223C11 5.4213 10.55 4.97192 10 4.97192Z" fill="#A79C8F"/>
</g>
<defs>
<clipPath id="clip0_1884_81">
<rect width="16" height="16" fill="white"/>
</clipPath>
</defs>
</svg>
