<svg width="16" height="16" viewBox="0 0 16 16" fill="none" xmlns="http://www.w3.org/2000/svg">
<g clip-path="url(#clip0_1884_83)">
<path d="M14 0H10.5C9.94781 0 9.5 0.447812 9.5 1V2.5H10.5C11.0522 2.5 11.5 2.94781 11.5 3.5C11.5 4.05219 11.0522 4.5 10.5 4.5H9.5V6.5H11.5V7C11.5 7.55219 11.9478 8 12.5 8C13.0522 8 13.5 7.55219 13.5 7V6.5H15C15.5522 6.5 16 6.05219 16 5.5V2C16 0.895313 15.1031 0 14 0ZM13 9H11.5V10C11.5 10.5522 11.0522 11 10.5 11C9.94781 11 9.5 10.5522 9.5 10V9H7V11H6C5.44781 11 5 11.4478 5 12C5 12.5522 5.44781 13 6 13H7V14.5H2.25C1.83594 14.5 1.5 14.1641 1.5 13.75V9H3V8C3 7.44781 3.44781 7 4 7C4.55219 7 5 7.44781 5 8V9H7V6.5H7.5C8.05219 6.5 8.5 6.05219 8.5 5.5C8.5 4.94781 8.05219 4.5 7.5 4.5H7V3C7 2.44781 6.55219 2 6 2H2C0.895313 2 0 2.89531 0 4V13.75C0 14.9937 1.0075 16 2.25 16H12C13.1047 16 14 15.1047 14 14V10C14 9.44687 13.5531 9 13 9Z" fill="#A79C8F"/>
</g>
<defs>
<clipPath id="clip0_1884_83">
<rect width="16" height="16" fill="white"/>
</clipPath>
</defs>
</svg>
