<svg width="26" height="24" viewBox="0 0 26 24" fill="none" xmlns="http://www.w3.org/2000/svg">
<path d="M9.35928 5.76292C9.35928 5.76292 9.86106 6.65372 10.7643 7.27879C11.6675 7.90385 14.9124 8.30528 14.9124 8.30528L18.6104 7.38424C18.6104 7.38424 21.0449 7.96238 21.6175 8.62397C22.19 9.28556 24.81 11.365 21.6175 14.7694L21.7134 17.4035L21.5074 21.7715C21.5074 21.7715 21.0974 22.26 20.9338 22.26C20.7701 22.26 19.8032 21.7715 19.8032 21.7715L19.9302 19.4449L19.7629 18.1402L18.6925 16.0327L17.7892 15.3245C17.7892 15.3245 16.3163 15.8751 16.0497 15.8658C15.7832 15.8564 12.8377 16.0327 12.8377 16.0327C12.8377 16.0327 11.5368 15.9998 11.1171 15.6817L9.98675 21.2993L9.30436 21.6803L8.2969 21.2476L8.58986 16.3673L8.2969 15.3245C7.12373 15.3301 6.38502 14.6536 5.91371 13.5573L4.57374 10.7228L4.1406 8.6326L1.66677 7.91754L1 6.43194L2.80606 5.28546L3.46271 4.56799L4.74459 3.44821C4.74459 3.44821 5.96593 1.78301 7.211 2.5352C8.45607 3.2874 9.28742 4.19683 9.28742 4.19683L9.35928 5.76292Z" fill="#A79C8F"/>
<path d="M4.40944 3.97817C4.40944 3.97817 4.38724 5.09361 6.11635 4.86781L6.86697 4.43808L7.3285 4.67191V5.44486L6.79781 6.11661L5.71287 5.84629L4.79742 5.83689L4.65888 6.31291L4.99681 6.99979L5.61251 7.72794H6.71644L8.13167 7.40427L9.18008 6.1877L9.42848 5.0688L9.22536 3.81406L8.39741 2.93594L7.04376 2.47852L5.75165 2.60918L4.40944 3.97817Z" fill="#D3869B"/>
<path d="M7.77005 7.72802C7.77005 7.72802 7.39833 9.60301 4.57349 10.1081L5.56304 12.6948C5.56304 12.6948 6.05182 14.7246 6.41523 14.7691C6.77869 14.8136 8.38022 15.5001 8.38022 15.5001C8.38022 15.5001 9.90006 14.4938 11.3189 15.213L11.1296 13.8034C11.1296 13.8034 15.0794 12.1688 17.6468 14.5272C17.6468 14.5272 20.4705 13.2591 21.6219 16.2766L21.742 14.5272L23.0884 12.9215V11.0649L22.1897 9.28536L20.6317 7.94274L18.968 7.27858L16.8547 7.90144L14.5849 8.11837L12.7272 7.94274L10.6209 6.90008L9.42835 6.11328C9.42835 6.11328 8.42594 7.81902 7.77005 7.72802Z" fill="#EBDBB2"/>
<path d="M10.6211 7.27881L10.8295 7.38318C10.8295 7.38318 14.2025 8.8184 17.6353 7.68678C17.6353 7.68678 20.889 6.69317 22.5605 9.89483C23.6471 11.9759 22.8309 13.323 22.1265 14.011C21.6918 14.4356 21.4603 15.0256 21.5382 15.6282L21.7247 17.071L21.5724 21.4848C21.5575 21.9172 21.2026 22.2599 20.77 22.2599H20.5374C20.0571 22.2599 19.6842 21.841 19.74 21.3638L19.833 19.1922C19.8623 18.508 19.6771 17.8318 19.3032 17.2581L17.9039 15.1113C17.9039 15.1113 16.7696 13.0413 17.695 11.5785" stroke="#141312" stroke-width="0.5" stroke-miterlimit="10" stroke-linecap="round" stroke-linejoin="round"/>
<path d="M12.8376 15.6816C14.2552 15.8655 16.5415 16.049 17.516 15.4973" stroke="#141312" stroke-width="0.5" stroke-miterlimit="10" stroke-linecap="round" stroke-linejoin="round"/>
<path d="M23.657 8.79077C23.657 8.79077 24.9405 8.84597 25.0002 10.7228" stroke="#141312" stroke-width="0.5" stroke-miterlimit="10" stroke-linecap="round" stroke-linejoin="round"/>
<path d="M6.2029 4.48025C6.2029 4.48025 7.30734 3.92379 7.42673 5.03671C7.48642 5.59317 7.1544 5.8376 6.88556 6.05966C6.48831 6.38779 5.52842 6.06886 4.97858 5.84317C4.77944 5.76144 4.56499 5.93711 4.61248 6.14706C4.75379 6.77164 5.24019 7.63804 6.30502 7.80342C8.88921 8.20485 10.7401 4.67819 8.26254 3.02215C5.56483 1.21894 4.3522 4.09857 4.3522 4.09857L3.25381 4.67819L2.80606 5.28539C2.80606 5.28539 0.358882 5.94116 1.16174 7.2682L1.86423 8.17141L3.54854 8.3301C4.00456 8.37305 4.35689 8.74935 4.36982 9.20721L4.78249 11.0309L6.24545 14.1488C6.44777 14.58 6.81098 14.9147 7.25721 15.0812L8.38048 15.5003C8.56365 15.9728 8.68042 16.3533 8.68042 16.3533L8.20782 20.7924C8.15733 21.2668 8.52913 21.6803 9.00618 21.6803H9.3044C9.68957 21.6803 10.0205 21.4067 10.0929 21.0285L11.2051 15.2224C11.2333 15.0755 11.2401 14.9253 11.2255 14.7765L11.0087 12.5721" stroke="#141312" stroke-width="0.5" stroke-miterlimit="10" stroke-linecap="round" stroke-linejoin="round"/>
</svg>
