<svg width="16" height="16" viewBox="0 0 16 16" fill="none" xmlns="http://www.w3.org/2000/svg">
<g clip-path="url(#clip0_1884_91)">
<path d="M13.4719 6C13.7492 6 13.9438 5.77722 13.9438 5.5V4.43437L15.6309 2.56312C16.0647 2.08656 16.045 1.36 15.5919 0.902812L15.0372 0.352188C14.5841 -0.100937 13.8576 -0.116562 13.3813 0.309219L4.91563 8H3.5C3.22266 8 3.02813 8.22266 3.02813 8.5V9.72656L0.575312 11.9416C0.243437 12.2463 0.0403125 12.6797 0.0284375 13.1291C0.0165625 13.5784 0.196406 14.0234 0.512812 14.34L1.68844 15.5159C1.96906 15.825 2.39469 16 2.83219 16C3.52344 16 3.94156 15.5819 4.05875 15.4531L12.5844 6H13.4719ZM2.94563 14.45C2.91828 14.4773 2.81281 14.5516 2.71906 14.4539L1.54719 13.2812C1.45344 13.1875 1.52375 13.082 1.55109 13.0547L14.2344 1.61312L14.3867 1.76547L2.94563 14.45ZM0.115062 4.65938L1.66625 5.33437L2.31312 6.88438C2.34487 6.94822 2.42869 6.99988 2.49991 6.99988C2.50015 6.99988 2.49966 6.99988 2.49991 6.99988C2.57094 6.97188 2.65406 6.94688 2.68563 6.88438L3.33313 5.33344L4.88375 4.68625C4.94697 4.65475 4.99875 4.57122 4.99909 4.50041C4.97187 4.42813 4.94688 4.34375 4.88438 4.3125L3.34063 3.66875L3.32812 3.65625L2.68563 2.11562C2.65406 2.05187 2.57094 2.00062 2.5 2C2.50024 2 2.49976 2 2.5 2C2.42878 2 2.34481 2.05153 2.31309 2.11538L1.66625 3.66563L0.115062 4.3125C0.051625 4.34688 0 4.42813 0 4.5C0 4.57187 0.051625 4.65313 0.115062 4.65938ZM15.9719 11.5C15.9718 11.429 15.9201 11.3453 15.8567 11.3136L14.3076 10.6676L13.6585 9.11544C13.6531 9.05313 13.5719 9 13.5 9C13.4287 9 13.3454 9.05163 13.3136 9.11547L12.6667 10.6664L11.1155 11.3136C11.0522 11.3453 11.0004 11.4287 11.0003 11.4997C11.0004 11.5704 11.0522 11.6545 11.1155 11.6862L12.6646 12.3321L13.3136 13.8843C13.3469 13.9469 13.4281 14 13.5 14C13.5712 14 13.6545 13.9482 13.6862 13.8844L14.3328 12.3335L15.8844 11.6863C15.9469 11.6531 15.9719 11.5719 15.9719 11.5ZM6.47188 2L6.86 2.93062C6.90625 2.96906 6.95625 3 6.97188 3C6.9875 3 7.06453 2.96899 7.08359 2.93066L7.47188 2L8.4025 1.61188C8.44059 1.59283 8.47172 1.54253 8.47172 1.50006C8.47172 1.45734 8.44059 1.40728 8.4025 1.38825L7.47188 1L7.1125 0.0693438C7.06563 0.0310063 7.04375 0 6.97188 0C6.9 0 6.90625 0.0310063 6.8875 0.0693438L6.47188 1L5.56875 1.38812C5.50312 1.40719 5.5 1.45719 5.5 1.5C5.5 1.54247 5.53103 1.59278 5.56906 1.61181L6.47188 2Z" fill="#8EC07C"/>
</g>
<defs>
<clipPath id="clip0_1884_91">
<rect width="16" height="16"/>
</clipPath>
</defs>
</svg>
